<svg width="24" height="20" viewBox="0 0 24 20" fill="none" xmlns="http://www.w3.org/2000/svg">
<path d="M21.3333 9.99999V4.16666H23.6666V11.1667H21.3333M21.3333 15.8333H23.6666V13.5H21.3333M9.66659 11.1667C12.7816 11.1667 18.9999 12.73 18.9999 15.8333V19.3333H0.333252V15.8333C0.333252 12.73 6.55159 11.1667 9.66659 11.1667ZM9.66659 0.666656C10.9043 0.666656 12.0912 1.15832 12.9664 2.03349C13.8416 2.90866 14.3333 4.09565 14.3333 5.33332C14.3333 6.571 13.8416 7.75799 12.9664 8.63315C12.0912 9.50832 10.9043 9.99999 9.66659 9.99999C8.42891 9.99999 7.24192 9.50832 6.36675 8.63315C5.49158 7.75799 4.99992 6.571 4.99992 5.33332C4.99992 4.09565 5.49158 2.90866 6.36675 2.03349C7.24192 1.15832 8.42891 0.666656 9.66659 0.666656ZM9.66659 13.3833C6.20159 13.3833 2.54992 15.0867 2.54992 15.8333V17.1167H16.7833V15.8333C16.7833 15.0867 13.1316 13.3833 9.66659 13.3833ZM9.66659 2.88332C9.01681 2.88332 8.39364 3.14145 7.93417 3.60091C7.47471 4.06038 7.21659 4.68354 7.21659 5.33332C7.21659 5.9831 7.47471 6.60627 7.93417 7.06573C8.39364 7.5252 9.01681 7.78332 9.66659 7.78332C10.3164 7.78332 10.9395 7.5252 11.399 7.06573C11.8585 6.60627 12.1166 5.9831 12.1166 5.33332C12.1166 4.68354 11.8585 4.06038 11.399 3.60091C10.9395 3.14145 10.3164 2.88332 9.66659 2.88332Z" fill="black"/>
</svg>
